<svg width="16" height="16" viewBox="0 0 16 16" fill="none" xmlns="http://www.w3.org/2000/svg">
<path d="M2 5.99999C2 5.64637 2.14048 5.30723 2.39052 5.05718C2.64057 4.80713 2.97971 4.66666 3.33333 4.66666H12.6667C13.0203 4.66666 13.3594 4.80713 13.6095 5.05718C13.8595 5.30723 14 5.64637 14 5.99999V12C14 12.3536 13.8595 12.6928 13.6095 12.9428C13.3594 13.1928 13.0203 13.3333 12.6667 13.3333H3.33333C2.97971 13.3333 2.64057 13.1928 2.39052 12.9428C2.14048 12.6928 2 12.3536 2 12V5.99999Z" stroke="black" style="stroke:black;stroke-opacity:1;" stroke-linecap="round" stroke-linejoin="round"/>
<path d="M5.33331 4.66667V3.33333C5.33331 2.97971 5.47379 2.64057 5.72384 2.39052C5.97389 2.14048 6.31302 2 6.66665 2H9.33331C9.68694 2 10.0261 2.14048 10.2761 2.39052C10.5262 2.64057 10.6666 2.97971 10.6666 3.33333V4.66667" stroke="black" style="stroke:black;stroke-opacity:1;" stroke-linecap="round" stroke-linejoin="round"/>
<path d="M8 8V8.00667" stroke="black" style="stroke:black;stroke-opacity:1;" stroke-linecap="round" stroke-linejoin="round"/>
<path d="M2 8.66666C3.86105 9.60445 5.91602 10.0929 8 10.0929C10.084 10.0929 12.1389 9.60445 14 8.66666" stroke="black" style="stroke:black;stroke-opacity:1;" stroke-linecap="round" stroke-linejoin="round"/>
</svg>
