<svg width="16" height="16" viewBox="0 0 16 16" fill="none" xmlns="http://www.w3.org/2000/svg">
<path d="M2 5.5V12C2 13.1046 2.89543 14 4 14H12C13.1046 14 14 13.1046 14 12V5.5M2 5.5V4C2 2.89543 2.89543 2 4 2H12C13.1046 2 14 2.89543 14 4V5.5M2 5.5H14M9.5 8.7381L10.5 7.7381V11.7381M5.5 7.7381H6.75C6.94891 7.7381 7.13968 7.81712 7.28033 7.95777C7.42098 8.09842 7.5 8.28919 7.5 8.4881V8.9881C7.5 9.18701 7.42098 9.37778 7.28033 9.51843C7.13968 9.65908 6.94891 9.7381 6.75 9.7381M6.75 9.7381H6M6.75 9.7381C6.94891 9.7381 7.13968 9.81712 7.28033 9.95777C7.42098 10.0984 7.5 10.2892 7.5 10.4881V10.9881C7.5 11.187 7.42098 11.3778 7.28033 11.5184C7.13968 11.6591 6.94891 11.7381 6.75 11.7381H5.5" stroke="black" style="stroke:black;stroke-opacity:1;" stroke-linecap="round" stroke-linejoin="round"/>
</svg>
