<svg width="14" height="14" viewBox="0 0 14 14" fill="none" xmlns="http://www.w3.org/2000/svg">
<g clip-path="url(#clip0_1607_292)">
<path d="M9 5.5L6.41499 8.16999L5 6.5M12.5125 6.99999C12.5125 8.46199 11.9317 9.86412 10.8979 10.8979C9.86412 11.9317 8.46199 12.5125 6.99999 12.5125C5.53798 12.5125 4.13586 11.9317 3.10206 10.8979C2.06827 9.86412 1.48749 8.46199 1.48749 6.99999C1.48749 5.53798 2.06827 4.13586 3.10206 3.10206C4.13586 2.06827 5.53798 1.48749 6.99999 1.48749C8.46199 1.48749 9.86412 2.06827 10.8979 3.10206C11.9317 4.13586 12.5125 5.53798 12.5125 6.99999Z" stroke="white" style="stroke:white;stroke-opacity:1;" stroke-linecap="round" stroke-linejoin="round"/>
</g>
<defs>
<clipPath id="clip0_1607_292">
<rect width="14" height="14" fill="white" style="fill:white;fill-opacity:1;"/>
</clipPath>
</defs>
</svg>
