<svg width="16" height="16" viewBox="0 0 16 16" fill="none" xmlns="http://www.w3.org/2000/svg">
<path d="M13.3333 3.99999V12C13.3333 12.3536 13.1929 12.6928 12.9428 12.9428C12.6928 13.1928 12.3536 13.3333 12 13.3333H5.33333C4.97971 13.3333 4.64057 13.1928 4.39052 12.9428C4.14048 12.6928 4 12.3536 4 12V3.99999C4 3.64637 4.14048 3.30723 4.39052 3.05718C4.64057 2.80713 4.97971 2.66666 5.33333 2.66666H12C12.3536 2.66666 12.6928 2.80713 12.9428 3.05718C13.1929 3.30723 13.3333 3.64637 13.3333 3.99999Z" stroke="black" style="stroke:black;stroke-opacity:1;" stroke-linecap="round" stroke-linejoin="round"/>
<path d="M6.66669 10.6667H10.6667" stroke="black" style="stroke:black;stroke-opacity:1;" stroke-linecap="round" stroke-linejoin="round"/>
<path d="M7.33331 7.33333C7.33331 7.68696 7.47379 8.02609 7.72384 8.27614C7.97389 8.52619 8.31302 8.66667 8.66665 8.66667C9.02027 8.66667 9.35941 8.52619 9.60946 8.27614C9.8595 8.02609 9.99998 7.68696 9.99998 7.33333C9.99998 6.97971 9.8595 6.64057 9.60946 6.39052C9.35941 6.14048 9.02027 6 8.66665 6C8.31302 6 7.97389 6.14048 7.72384 6.39052C7.47379 6.64057 7.33331 6.97971 7.33331 7.33333Z" stroke="black" style="stroke:black;stroke-opacity:1;" stroke-linecap="round" stroke-linejoin="round"/>
<path d="M2.66669 5.33334H4.66669" stroke="black" style="stroke:black;stroke-opacity:1;" stroke-linecap="round" stroke-linejoin="round"/>
<path d="M2.66669 8H4.66669" stroke="black" style="stroke:black;stroke-opacity:1;" stroke-linecap="round" stroke-linejoin="round"/>
<path d="M2.66669 10.6667H4.66669" stroke="black" style="stroke:black;stroke-opacity:1;" stroke-linecap="round" stroke-linejoin="round"/>
</svg>
