<svg width="12" height="12" viewBox="0 0 12 12" fill="none" xmlns="http://www.w3.org/2000/svg">
<g clip-path="url(#clip0_1607_298)">
<path d="M9.06 2.625H2.93997C2.87217 2.64935 2.81071 2.68928 2.76031 2.74171C2.7099 2.79415 2.67188 2.8577 2.64916 2.92751C2.62644 2.99732 2.61962 3.07152 2.62923 3.14444C2.63884 3.21737 2.66461 3.28707 2.70458 3.34822L5.05845 6V7.92855L6.94155 9.375V6L9.29542 3.34822C9.3354 3.28707 9.3612 3.21737 9.3708 3.14444C9.3804 3.07152 9.37357 2.99732 9.35085 2.92751C9.32812 2.8577 9.2901 2.79415 9.2397 2.74171C9.1893 2.68928 9.1278 2.64935 9.06 2.625Z" stroke="black" style="stroke:black;stroke-opacity:1;" stroke-linecap="round" stroke-linejoin="round"/>
</g>
<defs>
<clipPath id="clip0_1607_298">
<rect width="12" height="12" fill="white" style="fill:white;fill-opacity:1;"/>
</clipPath>
</defs>
</svg>
