<svg width="16" height="17" viewBox="0 0 16 17" fill="none" xmlns="http://www.w3.org/2000/svg">
<path d="M5.86174 14.9431C6.30864 15.3376 6.89567 15.5769 7.5386 15.5769C8.18154 15.5769 8.76857 15.3376 9.21547 14.9431M11.3413 6.704C11.3413 5.69547 10.9406 4.72825 10.2275 4.01511C9.51436 3.30197 8.54713 2.90134 7.5386 2.90134C6.53007 2.90134 5.56285 3.30197 4.84971 4.01511C4.13657 4.72825 3.73594 5.69547 3.73594 6.704C3.73594 8.66249 3.24189 10.0034 2.68999 10.8904C2.22446 11.6385 1.99169 12.0126 2.00023 12.1169C2.00968 12.2325 2.03416 12.2766 2.12727 12.3456C2.21136 12.408 2.59044 12.408 3.34861 12.408H11.7286C12.4868 12.408 12.8658 12.408 12.9499 12.3456C13.0431 12.2766 13.0675 12.2325 13.077 12.1169C13.0855 12.0126 12.8528 11.6385 12.3872 10.8904C11.8353 10.0034 11.3413 8.66249 11.3413 6.704Z" stroke="black" style="stroke:black;stroke-opacity:1;" stroke-linecap="round" stroke-linejoin="round"/>
</svg>
