<svg width="14" height="14" viewBox="0 0 14 14" fill="none" xmlns="http://www.w3.org/2000/svg">
<path d="M5.48048 11.2998L5.82141 12.0666C5.92276 12.2948 6.08815 12.4887 6.29754 12.6248C6.50693 12.7609 6.75131 12.8334 7.00104 12.8333C7.25077 12.8334 7.49515 12.7609 7.70454 12.6248C7.91392 12.4887 8.07932 12.2948 8.18067 12.0666L8.52159 11.2998C8.64295 11.0277 8.8471 10.8009 9.10493 10.6517C9.36438 10.502 9.66454 10.4382 9.96243 10.4695L10.7966 10.5583C11.0449 10.5846 11.2955 10.5383 11.518 10.4249C11.7405 10.3116 11.9253 10.1362 12.0501 9.9199C12.175 9.70375 12.2346 9.45599 12.2215 9.20667C12.2083 8.95736 12.1231 8.71721 11.9762 8.51536L11.4823 7.83675C11.3065 7.59332 11.2125 7.3003 11.214 6.99999C11.2139 6.7005 11.3088 6.40869 11.4849 6.16647L11.9788 5.48786C12.1257 5.28601 12.2109 5.04586 12.224 4.79655C12.2372 4.54723 12.1776 4.29947 12.0527 4.08332C11.9279 3.86704 11.7431 3.69161 11.5206 3.57829C11.2981 3.46497 11.0475 3.41863 10.7992 3.4449L9.96502 3.53369C9.66713 3.56498 9.36698 3.50123 9.10752 3.35156C8.84918 3.20147 8.64498 2.97345 8.52419 2.70018L8.18067 1.93342C8.07932 1.70517 7.91392 1.51124 7.70454 1.37514C7.49515 1.23904 7.25077 1.16662 7.00104 1.16666C6.75131 1.16662 6.50693 1.23904 6.29754 1.37514C6.08815 1.51124 5.92276 1.70517 5.82141 1.93342L5.48048 2.70018C5.35969 2.97345 5.15549 3.20147 4.89715 3.35156C4.63769 3.50123 4.33754 3.56498 4.03965 3.53369L3.20289 3.4449C2.95458 3.41863 2.70399 3.46497 2.48149 3.57829C2.25899 3.69161 2.07415 3.86704 1.94937 4.08332C1.82443 4.29947 1.76491 4.54723 1.77803 4.79655C1.79114 5.04586 1.87633 5.28601 2.02326 5.48786L2.51715 6.16647C2.69328 6.40869 2.78813 6.7005 2.78807 6.99999C2.78813 7.29948 2.69328 7.59129 2.51715 7.83351L2.02326 8.51212C1.87633 8.71397 1.79114 8.95412 1.77803 9.20343C1.76491 9.45275 1.82443 9.70051 1.94937 9.91666C2.07427 10.1328 2.25914 10.3082 2.4816 10.4215C2.70407 10.5348 2.9546 10.5812 3.20289 10.5551L4.03706 10.4663C4.33495 10.435 4.6351 10.4988 4.89456 10.6484C5.15386 10.7981 5.35901 11.0262 5.48048 11.2998Z" stroke="black" style="stroke:black;stroke-opacity:1;" stroke-linecap="round" stroke-linejoin="round"/>
<path d="M6.99999 8.74999C7.96649 8.74999 8.74999 7.96649 8.74999 6.99999C8.74999 6.03349 7.96649 5.24999 6.99999 5.24999C6.0335 5.24999 5.24999 6.03349 5.24999 6.99999C5.24999 7.96649 6.0335 8.74999 6.99999 8.74999Z" stroke="black" style="stroke:black;stroke-opacity:1;" stroke-linecap="round" stroke-linejoin="round"/>
</svg>
