<svg width="16" height="16" viewBox="0 0 16 16" fill="none" xmlns="http://www.w3.org/2000/svg">
<path d="M10 14H13C13.6 14 14 13.6 14 13V3C14 2.4 13.6 2 13 2H10C9.73478 2 9.48043 2.10536 9.29289 2.29289C9.10536 2.48043 9 2.73478 9 3V13C9 13.6 9.4 14 10 14ZM10 14L14 10M9 6.8L13.6 2.2M9 10.8L14 5.8M3 2H6C6.6 2 7 2.4 7 3V13C7 13.6 6.6 14 6 14H3C2.73478 14 2.48043 13.8946 2.29289 13.7071C2.10536 13.5196 2 13.2652 2 13V3C2 2.4 2.4 2 3 2Z" stroke="black" style="stroke:black;stroke-opacity:1;" stroke-linecap="round" stroke-linejoin="round"/>
</svg>
