<svg width="14" height="14" viewBox="0 0 14 14" fill="none" xmlns="http://www.w3.org/2000/svg">
<path d="M3.598 10.9952C3.74238 10.5147 4.03782 10.0936 4.44048 9.79414C4.84314 9.4948 5.33158 9.33319 5.83334 9.33336H8.16666C8.66907 9.33319 9.1581 9.49515 9.56104 9.79519C9.96397 10.0952 10.2594 10.5174 10.4031 10.9987M12.25 7C12.25 9.89949 9.89949 12.25 7 12.25C4.1005 12.25 1.75 9.89949 1.75 7C1.75 4.1005 4.1005 1.75 7 1.75C9.89949 1.75 12.25 4.1005 12.25 7ZM8.75 5.83334C8.75 6.79983 7.9665 7.58334 7 7.58334C6.0335 7.58334 5.25 6.79983 5.25 5.83334C5.25 4.86684 6.0335 4.08334 7 4.08334C7.9665 4.08334 8.75 4.86684 8.75 5.83334Z" stroke="black" style="stroke:black;stroke-opacity:1;" stroke-linecap="round" stroke-linejoin="round"/>
</svg>
